<mxfile host="app.diagrams.net" modified="2023-08-10T04:04:09.004Z" agent="Mozilla/5.0 (Macintosh; Intel Mac OS X 10_15_7) AppleWebKit/537.36 (KHTML, like Gecko) Chrome/115.0.0.0 Safari/537.36" version="21.6.6" etag="svmmNU-sWTBcf-BI46u0" type="github">
  <diagram name="ページ1" id="pPKeax4onKNSpQOgfhGD">
    <mxGraphModel>
      <root>
        <mxCell id="0" />
        <mxCell id="1" parent="0" />
      </root>
    </mxGraphModel>
  </diagram>
</mxfile>
